<?xml version="1.0" encoding="utf-8"?>
<!-- Generator: Adobe Illustrator 25.2.3, SVG Export Plug-In . SVG Version: 6.00 Build 0)  -->
<svg version="1.1" id="Layer_1" xmlns="http://www.w3.org/2000/svg" xmlns:xlink="http://www.w3.org/1999/xlink" x="0px" y="0px"
	 viewBox="0 0 30 30" style="enable-background:new 0 0 30 30;" xml:space="preserve">
<style type="text/css">
	.st0{fill-rule:evenodd;clip-rule:evenodd;fill:#F75454;}
</style>
<path class="st0" d="M30,23.5c0,3.3-2,5.8-5.2,6.5c0,0-0.1,0-0.1,0c-0.1,0-0.1,0-0.2,0c0-1.4,0-2.8,0-4.2c0-0.1,0.1-0.2,0.2-0.2
	c0.7-0.4,1.1-1.1,1.1-1.9c0-1.6,0-3.1,0-4.7c1.4,0,2.8,0,4.3,0c0,0.1,0,0.2,0,0.3C30,20.6,30,22.1,30,23.5z M25.7,17.1
	c0-1.1,0-2.2,0-3.2c0-1.2,1-2,2.2-2c1.1,0,2,1,2.1,2.1c0,1,0,2,0,3c0,0,0,0.1,0,0.1C28.6,17.1,27.2,17.1,25.7,17.1z M20.4,29.2
	c-2.1-1.3-3.2-3.1-3.3-5.5c0-2.6,0-5.1,0-7.7c0,0,0-0.1,0-0.2c1.4,0,2.8,0,4.3,0c0,0.1,0,0.2,0,0.3c0,2.4,0,4.9,0,7.3
	c0,0.9,0.3,1.6,1.1,2.1c0.1,0,0.1,0.2,0.1,0.3c0,1.3,0,2.6,0,3.8c0,0.1,0,0.2,0,0.3c-0.1,0-0.1,0-0.2,0
	C21.8,29.8,21.1,29.6,20.4,29.2z M17.1,14c0-0.1,0-0.2,0-0.3c0-2.4,0-4.8,0-7.2c0-0.9-0.3-1.6-1.1-2.1c-0.1,0-0.1-0.1-0.1-0.2
	c0-1.4,0-2.8,0-4.3c1.5,0.2,2.8,0.9,3.8,2c1.1,1.2,1.7,2.6,1.7,4.3c0,2.5,0,5.1,0,7.6c0,0.1,0,0.1,0,0.2C20,14,18.6,14,17.1,14z
	 M13.6,4.8c-0.6,0.3-0.7,1-0.7,1.6c0,1.6,0,3.3,0,4.9c0,0.8,0,1.6,0,2.5c0,0.1,0,0.2,0,0.3c-1.4,0-2.8,0-4.3,0c0-0.1,0-0.2,0-0.3
	c0-2.5,0-5,0-7.4c0-3.2,2.3-5.8,5.4-6.3c0,0,0.1,0,0.1,0c0,0.6,0,1.2,0,1.8c0,0.6,0,1.1,0,1.7C14.1,4,14.1,4.4,13.6,4.8z M8.6,15.8
	c1.4,0,2.8,0,4.3,0c0,0.1,0,0.2,0,0.3c0,2.4,0,4.9,0,7.3c0,3.5-2.5,6-5.3,6.5c0,0-0.1,0-0.1,0c-0.1,0-0.1,0-0.2,0c0-1.4,0-2.7,0-4.1
	c0-0.2,0.1-0.3,0.2-0.4c0.7-0.4,1-1.1,1-1.9c0-2.4,0-4.9,0-7.3C8.6,16.1,8.6,16,8.6,15.8z M5.4,30c-0.5-0.2-1-0.3-1.5-0.5
	c-2.5-1.1-3.8-3.1-3.9-5.8c-0.1-1.5,0-3.1,0-4.6C0,19,0,19,0,18.9c1.4,0,2.8,0,4.3,0c0,0.1,0,0.2,0,0.3c0,1.5,0,2.9,0,4.4
	c0,0.9,0.4,1.5,1.1,1.9c0.1,0,0.2,0.2,0.2,0.2c0,1.4,0,2.8,0,4.2C5.5,30,5.4,30,5.4,30z M0,17.1c0-0.6,0-1.1,0-1.6c0-0.5,0-1,0-1.5
	c0-1.2,0.9-2.1,2-2.2c1.2-0.1,2.2,0.8,2.2,2c0.1,1.1,0,2.2,0,3.3C2.9,17.1,1.5,17.1,0,17.1z"/>
</svg>
